<svg xmlns="http://www.w3.org/2000/svg" xmlns:xlink="http://www.w3.org/1999/xlink" width="1920" zoomAndPan="magnify" viewBox="0 0 1440 809.999993" height="1080" preserveAspectRatio="xMidYMid meet" version="1.0"><defs><g/><clipPath id="2c00daeeee"><path d="M 101 0.160156 L 1059 0.160156 L 1059 489 L 101 489 Z M 101 0.160156 " clip-rule="nonzero"/></clipPath><clipPath id="553a294b3b"><rect x="0" width="958" y="0" height="489"/></clipPath><clipPath id="9007511a13"><path d="M 0.558594 269 L 1288.640625 269 L 1288.640625 778 L 0.558594 778 Z M 0.558594 269 " clip-rule="nonzero"/></clipPath><clipPath id="7a7bbdf2cc"><rect x="0" width="1289" y="0" height="509"/></clipPath><clipPath id="127193a74f"><rect x="0" width="1289" y="0" height="778"/></clipPath></defs><g transform="matrix(1, 0, 0, 1, 40, 32)"><g clip-path="url(#127193a74f)"><g clip-path="url(#2c00daeeee)"><g transform="matrix(1, 0, 0, 1, 101, 0.000000000000042633)"><g clip-path="url(#553a294b3b)"><g fill="#9f9e05" fill-opacity="1"><g transform="translate(43.334427, 285.566368)"><g><path d="M 166.25 -248.984375 C 173.71875 -249.492188 180.1875 -248.410156 185.65625 -245.734375 C 191.132812 -243.066406 195.734375 -239.335938 199.453125 -234.546875 C 203.179688 -229.765625 206.179688 -224.472656 208.453125 -218.671875 C 210.734375 -212.867188 212.425781 -207.03125 213.53125 -201.15625 C 214.15625 -197.851562 214.613281 -194.632812 214.90625 -191.5 C 215.207031 -188.363281 215.40625 -185.394531 215.5 -182.59375 C 215.78125 -171.675781 215.113281 -160.054688 213.5 -147.734375 C 211.894531 -135.410156 209.414062 -122.960938 206.0625 -110.390625 C 202.71875 -97.828125 198.609375 -85.59375 193.734375 -73.6875 C 190.472656 -65.800781 186.390625 -57.351562 181.484375 -48.34375 C 176.585938 -39.332031 170.84375 -30.273438 164.25 -21.171875 C 157.65625 -12.066406 150.226562 -3.4375 141.96875 4.71875 C 133.71875 12.875 124.582031 20.085938 114.5625 26.359375 C 104.539062 32.628906 93.609375 37.398438 81.765625 40.671875 C 80.367188 41.078125 78.992188 41.441406 77.640625 41.765625 C 76.296875 42.097656 74.910156 42.398438 73.484375 42.671875 C 59.722656 45.265625 47.617188 44.613281 37.171875 40.71875 C 26.722656 36.832031 18.128906 30.21875 11.390625 20.875 C 4.660156 11.539062 0.015625 0.0664062 -2.546875 -13.546875 C -3.765625 -19.992188 -4.507812 -26.898438 -4.78125 -34.265625 C -5.0625 -41.628906 -4.785156 -49.390625 -3.953125 -57.546875 C -2.628906 -71.015625 1.519531 -85.96875 8.5 -102.40625 C 15.488281 -118.851562 26.144531 -136.734375 40.46875 -156.046875 C 41.863281 -158.085938 43.28125 -159.242188 44.71875 -159.515625 C 45.425781 -159.648438 45.863281 -159.664062 46.03125 -159.5625 C 46.882812 -158.976562 47.378906 -158.328125 47.515625 -157.609375 C 47.679688 -156.753906 47.328125 -155.5 46.453125 -153.84375 C 46.453125 -153.84375 45.507812 -152.332031 43.625 -149.3125 C 41.75 -146.289062 39.378906 -142.132812 36.515625 -136.84375 C 33.648438 -131.5625 30.675781 -125.476562 27.59375 -118.59375 C 24.519531 -111.707031 21.867188 -104.34375 19.640625 -96.5 C 15.515625 -82.226562 12.941406 -68.132812 11.921875 -54.21875 C 10.910156 -40.300781 11.488281 -27.613281 13.65625 -16.15625 C 15.789062 -4.832031 19.515625 4.921875 24.828125 13.109375 C 30.148438 21.304688 37.171875 27.289062 45.890625 31.0625 C 54.617188 34.832031 65.234375 35.617188 77.734375 33.421875 C 83.898438 32.253906 89.5625 30.40625 94.71875 27.875 C 99.875 25.34375 104.671875 22.472656 109.109375 19.265625 C 118.273438 12.773438 126.878906 4.695312 134.921875 -4.96875 C 142.960938 -14.632812 150.363281 -25.335938 157.125 -37.078125 C 163.894531 -48.816406 169.867188 -61.03125 175.046875 -73.71875 C 182.578125 -91.90625 188.582031 -109.988281 193.0625 -127.96875 C 197.550781 -145.945312 199.835938 -162.582031 199.921875 -177.875 C 199.910156 -181.882812 199.828125 -186.84375 199.671875 -192.75 C 199.515625 -198.65625 198.867188 -204.617188 197.734375 -210.640625 C 196.710938 -216.085938 195.15625 -221.207031 193.0625 -226 C 190.96875 -230.789062 188.109375 -234.550781 184.484375 -237.28125 C 181.722656 -239.28125 178.265625 -240.664062 174.109375 -241.4375 C 169.960938 -242.21875 165.457031 -242.148438 160.59375 -241.234375 C 157.289062 -240.609375 153.859375 -239.519531 150.296875 -237.96875 C 142.335938 -234.539062 134.273438 -229.3125 126.109375 -222.28125 C 117.941406 -215.257812 110.316406 -206.925781 103.234375 -197.28125 C 96.160156 -187.632812 90.117188 -177 85.109375 -165.375 C 80.097656 -153.75 76.804688 -141.476562 75.234375 -128.5625 C 73.671875 -116.40625 73.6875 -106.101562 75.28125 -97.65625 C 76.519531 -91.0625 78.71875 -85.6875 81.875 -81.53125 C 85.03125 -77.382812 89.160156 -74.75 94.265625 -73.625 C 98.578125 -72.8125 102.597656 -72.753906 106.328125 -73.453125 C 117.078125 -75.484375 126.269531 -83.742188 133.90625 -98.234375 C 137.269531 -104.804688 139.929688 -111.164062 141.890625 -117.3125 C 143.941406 -124.53125 144.929688 -131.285156 144.859375 -137.578125 C 144.785156 -143.867188 144.316406 -149.304688 143.453125 -153.890625 C 142.828125 -157.179688 142.148438 -159.976562 141.421875 -162.28125 C 140.691406 -164.59375 140.160156 -166.242188 139.828125 -167.234375 C 139.773438 -167.515625 139.679688 -167.828125 139.546875 -168.171875 C 139.410156 -168.515625 139.3125 -168.828125 139.25 -169.109375 C 138.582031 -172.691406 139.828125 -175.15625 142.984375 -176.5 C 144.273438 -176.738281 145.535156 -176.34375 146.765625 -175.3125 C 147.992188 -174.28125 148.953125 -172.347656 149.640625 -169.515625 C 149.773438 -168.796875 149.957031 -168.015625 150.1875 -167.171875 C 150.425781 -166.328125 150.609375 -165.546875 150.734375 -164.828125 C 152.253906 -156.804688 152.847656 -149.535156 152.515625 -143.015625 C 152.179688 -136.503906 151.59375 -131.347656 150.75 -127.546875 C 149.90625 -123.753906 149.484375 -121.859375 149.484375 -121.859375 C 148.472656 -117.804688 147.160156 -113.554688 145.546875 -109.109375 C 143.941406 -104.660156 141.882812 -100.046875 139.375 -95.265625 C 134.957031 -87.160156 129.613281 -80.472656 123.34375 -75.203125 C 117.070312 -69.941406 110.566406 -66.675781 103.828125 -65.40625 C 95.523438 -63.84375 88.351562 -64.492188 82.3125 -67.359375 C 76.28125 -70.234375 71.40625 -74.660156 67.6875 -80.640625 C 63.96875 -86.617188 61.410156 -93.332031 60.015625 -100.78125 C 58.390625 -109.375 58.203125 -118.234375 59.453125 -127.359375 C 61.003906 -139.535156 64.175781 -151.597656 68.96875 -163.546875 C 73.769531 -175.503906 79.851562 -186.738281 87.21875 -197.25 C 94.582031 -207.769531 102.925781 -217.019531 112.25 -225 C 121.570312 -232.988281 131.632812 -239.039062 142.4375 -243.15625 C 148.375 -245.457031 153.992188 -247.109375 159.296875 -248.109375 C 160.578125 -248.347656 161.796875 -248.539062 162.953125 -248.6875 C 164.117188 -248.84375 165.21875 -248.941406 166.25 -248.984375 Z M 166.25 -248.984375 "/></g></g></g><g fill="#9f9e05" fill-opacity="1"><g transform="translate(264.036378, 246.844923)"><g><path d="M 98.65625 -63.734375 C 99.75 -63.109375 100.347656 -62.289062 100.453125 -61.28125 C 100.472656 -60.988281 100.367188 -60.535156 100.140625 -59.921875 C 92.566406 -42.660156 84.289062 -29.3125 75.3125 -19.875 C 66.332031 -10.4375 56.398438 -5.195312 45.515625 -4.15625 C 40.578125 -3.675781 36.472656 -4.050781 33.203125 -5.28125 C 29.941406 -6.507812 27.628906 -8.15625 26.265625 -10.21875 C 24.710938 -12.707031 23.789062 -15.472656 23.5 -18.515625 C 22.957031 -24.179688 24.375 -31.128906 27.75 -39.359375 C 31.125 -47.585938 36.300781 -57.3125 43.28125 -68.53125 C 46.601562 -73.6875 49.832031 -78.972656 52.96875 -84.390625 C 56.113281 -89.816406 58.71875 -95.488281 60.78125 -101.40625 L 61.640625 -103.890625 L 60.328125 -103.765625 C 53.796875 -103.140625 48.476562 -103.582031 44.375 -105.09375 C 40.28125 -106.613281 37.125 -108.289062 34.90625 -110.125 L 9.125 -51.40625 C 8.644531 -50.332031 7.898438 -49.75 6.890625 -49.65625 C 6.453125 -49.613281 5.925781 -49.710938 5.3125 -49.953125 C 4.394531 -50.296875 3.890625 -50.976562 3.796875 -52 C 3.753906 -52.4375 3.847656 -52.953125 4.078125 -53.546875 L 30.734375 -114.546875 C 29.546875 -116.203125 28.644531 -117.953125 28.03125 -119.796875 C 27.414062 -121.640625 27.023438 -123.429688 26.859375 -125.171875 C 26.597656 -127.929688 26.796875 -130.441406 27.453125 -132.703125 C 27.679688 -133.316406 27.914062 -133.890625 28.15625 -134.421875 C 28.40625 -134.953125 28.648438 -135.523438 28.890625 -136.140625 C 30.421875 -138.484375 32.003906 -140.242188 33.640625 -141.421875 C 35.671875 -143.222656 37.789062 -144.445312 40 -145.09375 C 42.207031 -145.738281 44.179688 -146.144531 45.921875 -146.3125 C 47.523438 -146.46875 48.765625 -146.515625 49.640625 -146.453125 C 50.523438 -146.398438 50.96875 -146.375 50.96875 -146.375 C 48.09375 -139.800781 45.875 -134.71875 44.3125 -131.125 C 42.75 -127.53125 41.597656 -124.96875 40.859375 -123.4375 C 40.128906 -121.90625 39.707031 -120.984375 39.59375 -120.671875 C 39.476562 -120.367188 39.421875 -120.21875 39.421875 -120.21875 C 39.179688 -119.613281 38.820312 -118.738281 38.34375 -117.59375 C 37.875 -116.445312 37.582031 -115.722656 37.46875 -115.421875 C 40.09375 -112.453125 43.757812 -110.457031 48.46875 -109.4375 C 53.1875 -108.425781 58.519531 -108.207031 64.46875 -108.78125 C 67.226562 -109.050781 70.078125 -109.472656 73.015625 -110.046875 C 75.960938 -110.628906 79.003906 -111.359375 82.140625 -112.234375 C 82.140625 -112.234375 80.703125 -108.546875 77.828125 -101.171875 C 74.953125 -93.796875 70.140625 -84.070312 63.390625 -72 L 60.578125 -66.890625 C 57.566406 -61.617188 54.40625 -56.003906 51.09375 -50.046875 C 47.789062 -44.085938 44.921875 -38.570312 42.484375 -33.5 C 41.890625 -32 41.253906 -29.820312 40.578125 -26.96875 C 39.898438 -24.113281 39.6875 -21.382812 39.9375 -18.78125 C 40.113281 -16.882812 40.707031 -15.21875 41.71875 -13.78125 C 42.738281 -12.34375 44.207031 -11.570312 46.125 -11.46875 C 46.582031 -11.363281 47.03125 -11.332031 47.46875 -11.375 C 47.90625 -11.414062 48.335938 -11.457031 48.765625 -11.5 C 55.160156 -12.113281 61.789062 -15.535156 68.65625 -21.765625 C 73.351562 -26.171875 77.910156 -31.691406 82.328125 -38.328125 C 86.742188 -44.972656 90.988281 -52.960938 95.0625 -62.296875 C 95.414062 -63.210938 96.175781 -63.722656 97.34375 -63.828125 C 97.914062 -63.890625 98.351562 -63.859375 98.65625 -63.734375 Z M 98.65625 -63.734375 "/></g></g></g><g fill="#9f9e05" fill-opacity="1"><g transform="translate(349.923716, 238.060049)"><g><path d="M 127.765625 -58.6875 C 128.660156 -58.289062 129.128906 -57.507812 129.171875 -56.34375 C 129.191406 -55.757812 129.132812 -55.320312 129 -55.03125 C 124.78125 -46.832031 120.234375 -38.773438 115.359375 -30.859375 C 110.484375 -22.953125 105.078125 -16.40625 99.140625 -11.21875 C 93.210938 -6.03125 86.609375 -3.296875 79.328125 -3.015625 C 72.191406 -2.742188 66.441406 -4.3125 62.078125 -7.71875 C 57.710938 -11.125 55.398438 -16.179688 55.140625 -22.890625 C 55.117188 -23.472656 55.097656 -24.09375 55.078125 -24.75 C 55.054688 -25.40625 55.101562 -26.03125 55.21875 -26.625 C 49.976562 -18.832031 44.523438 -12.675781 38.859375 -8.15625 C 33.191406 -3.632812 27.597656 -1.195312 22.078125 -0.84375 L 21.203125 -0.8125 C 15.953125 -0.601562 11.710938 -1.644531 8.484375 -3.9375 C 5.265625 -6.226562 2.929688 -9.164062 1.484375 -12.75 C 0.0351562 -16.34375 -0.765625 -20.109375 -0.921875 -24.046875 C -0.953125 -24.921875 -0.984375 -25.753906 -1.015625 -26.546875 C -1.046875 -27.347656 -1 -28.117188 -0.875 -28.859375 C -0.238281 -35.148438 1.253906 -41.914062 3.609375 -49.15625 C 5.960938 -56.394531 9.117188 -63.519531 13.078125 -70.53125 C 19.234375 -81.40625 25.253906 -89.984375 31.140625 -96.265625 C 37.023438 -102.546875 42.648438 -107.03125 48.015625 -109.71875 C 53.390625 -112.40625 58.335938 -113.832031 62.859375 -114 C 64.753906 -114.070312 66.503906 -113.957031 68.109375 -113.65625 C 69.722656 -113.351562 71.269531 -112.9375 72.75 -112.40625 C 75.863281 -111.363281 78.160156 -109.519531 79.640625 -106.875 C 81.117188 -104.226562 81.929688 -101.015625 82.078125 -97.234375 C 82.128906 -95.921875 82.109375 -94.566406 82.015625 -93.171875 C 81.921875 -91.785156 81.757812 -90.28125 81.53125 -88.65625 L 94.15625 -113.4375 L 112.3125 -114.140625 L 83.171875 -57.21875 C 78.828125 -48.738281 75.695312 -41.835938 73.78125 -36.515625 C 71.875 -31.191406 70.628906 -26.617188 70.046875 -22.796875 C 70.054688 -22.503906 70.03125 -22.175781 69.96875 -21.8125 C 69.914062 -21.445312 69.894531 -21.046875 69.90625 -20.609375 C 69.988281 -18.566406 70.65625 -16.398438 71.90625 -14.109375 C 73.164062 -11.828125 75.40625 -10.382812 78.625 -9.78125 C 79.070312 -9.65625 79.515625 -9.597656 79.953125 -9.609375 C 80.390625 -9.628906 80.828125 -9.648438 81.265625 -9.671875 C 83.734375 -9.765625 86.503906 -10.59375 89.578125 -12.15625 C 92.660156 -13.726562 95.957031 -16.335938 99.46875 -19.984375 C 103.820312 -24.523438 108.023438 -30.082031 112.078125 -36.65625 C 116.128906 -43.226562 120.0625 -50.164062 123.875 -57.46875 C 124.414062 -58.5 125.195312 -59.03125 126.21875 -59.0625 C 126.65625 -59.082031 127.171875 -58.957031 127.765625 -58.6875 Z M 36.453125 -13.859375 C 44.671875 -20.453125 52.65625 -31.1875 60.40625 -46.0625 C 61.625 -48.59375 63.175781 -51.898438 65.0625 -55.984375 C 66.945312 -60.066406 68.742188 -64.515625 70.453125 -69.328125 C 72.171875 -74.140625 73.597656 -78.894531 74.734375 -83.59375 C 75.867188 -88.300781 76.363281 -92.476562 76.21875 -96.125 C 76.125 -98.59375 75.675781 -100.722656 74.875 -102.515625 C 74.082031 -104.316406 72.863281 -105.695312 71.21875 -106.65625 C 70.039062 -107.34375 68.722656 -107.660156 67.265625 -107.609375 C 63.765625 -107.472656 59.894531 -105.535156 55.65625 -101.796875 C 51.425781 -98.066406 47.125 -93.234375 42.75 -87.296875 C 38.375 -81.367188 34.34375 -75.054688 30.65625 -68.359375 C 26.988281 -61.503906 23.859375 -54.707031 21.265625 -47.96875 C 18.679688 -41.226562 17.0625 -34.859375 16.40625 -28.859375 C 16.0625 -26.515625 15.929688 -24.25 16.015625 -22.0625 C 16.179688 -17.539062 17.179688 -14.222656 19.015625 -12.109375 C 20.847656 -9.992188 23.148438 -8.988281 25.921875 -9.09375 C 28.972656 -9.207031 32.484375 -10.796875 36.453125 -13.859375 Z M 36.453125 -13.859375 "/></g></g></g><g fill="#9f9e05" fill-opacity="1"><g transform="translate(461.22627, 234.413322)"><g/></g></g><g fill="#9f9e05" fill-opacity="1"><g transform="translate(510.933985, 234.775664)"><g/></g></g><g fill="#9f9e05" fill-opacity="1"><g transform="translate(560.320854, 234.101522)"><g><path d="M 208.84375 -31.96875 C 209.65625 -31.445312 210 -30.601562 209.875 -29.4375 C 209.820312 -28.863281 209.707031 -28.4375 209.53125 -28.15625 C 198.632812 -12.757812 187.804688 -1.347656 177.046875 6.078125 C 166.285156 13.503906 155.46875 16.632812 144.59375 15.46875 C 139.664062 14.945312 135.722656 13.796875 132.765625 12.015625 C 129.804688 10.234375 127.875 8.117188 126.96875 5.671875 C 125.925781 3.054688 125.566406 0.226562 125.890625 -2.8125 C 126.484375 -8.320312 129.257812 -14.765625 134.21875 -22.140625 C 139.1875 -29.523438 146.222656 -38.085938 155.328125 -47.828125 C 159.617188 -52.203125 163.84375 -56.695312 168 -61.3125 C 172.15625 -65.925781 175.921875 -70.976562 179.296875 -76.46875 C 179.472656 -76.75 179.878906 -77.476562 180.515625 -78.65625 C 181.148438 -79.832031 181.53125 -81 181.65625 -82.15625 C 181.769531 -83.175781 181.566406 -84.003906 181.046875 -84.640625 C 180.523438 -85.285156 179.945312 -85.71875 179.3125 -85.9375 C 178.675781 -86.15625 177.992188 -86.300781 177.265625 -86.375 C 176.972656 -86.40625 176.644531 -86.40625 176.28125 -86.375 C 175.914062 -86.34375 175.585938 -86.34375 175.296875 -86.375 C 172.484375 -86.226562 169.550781 -85.582031 166.5 -84.4375 C 163.457031 -83.300781 160.363281 -81.800781 157.21875 -79.9375 C 148.644531 -74.988281 140.78125 -69.234375 133.625 -62.671875 C 126.46875 -56.109375 120.273438 -49.695312 115.046875 -43.4375 C 109.828125 -37.1875 105.757812 -32.015625 102.84375 -27.921875 L 78.25 6.625 L 60.421875 4.71875 C 70.265625 -9.195312 78.253906 -20.515625 84.390625 -29.234375 C 90.523438 -37.960938 95.320312 -44.78125 98.78125 -49.6875 C 102.25 -54.59375 104.71875 -58.101562 106.1875 -60.21875 C 107.65625 -62.34375 108.554688 -63.601562 108.890625 -64 C 109.234375 -64.40625 109.40625 -64.609375 109.40625 -64.609375 C 112.320312 -68.546875 114.9375 -72.769531 117.25 -77.28125 C 119.570312 -81.800781 120.878906 -85.4375 121.171875 -88.1875 C 121.296875 -89.351562 121.171875 -90.25 120.796875 -90.875 C 119.878906 -92 118.625 -92.648438 117.03125 -92.828125 C 116.738281 -92.859375 116.445312 -92.851562 116.15625 -92.8125 C 115.863281 -92.769531 115.570312 -92.765625 115.28125 -92.796875 C 112.46875 -92.648438 109.5 -92.007812 106.375 -90.875 C 103.257812 -89.75 100.128906 -88.253906 96.984375 -86.390625 C 89.023438 -81.816406 81.6875 -76.550781 74.96875 -70.59375 C 68.25 -64.644531 62.300781 -58.722656 57.125 -52.828125 C 51.945312 -46.929688 47.800781 -41.800781 44.6875 -37.4375 L 18.015625 0.171875 L 0.1875 -1.734375 L 71.703125 -102.734375 L 89.75 -100.796875 L 70.578125 -73.84375 C 75.941406 -78.675781 81.472656 -83.097656 87.171875 -87.109375 C 92.878906 -91.117188 98.570312 -94.285156 104.25 -96.609375 C 109.925781 -98.929688 115.300781 -99.820312 120.375 -99.28125 C 122.84375 -99.007812 125.132812 -98.46875 127.25 -97.65625 C 129.363281 -96.851562 130.890625 -95.375 131.828125 -93.21875 C 133.148438 -90.570312 133.632812 -87.582031 133.28125 -84.25 C 132.644531 -78.3125 129.203125 -70.113281 122.953125 -59.65625 C 128.710938 -65.476562 134.878906 -71.039062 141.453125 -76.34375 C 148.023438 -81.65625 154.671875 -85.894531 161.390625 -89.0625 C 168.117188 -92.226562 174.523438 -93.484375 180.609375 -92.828125 C 183.078125 -92.566406 185.363281 -92.03125 187.46875 -91.21875 C 189.582031 -90.40625 191.113281 -88.921875 192.0625 -86.765625 C 193.15625 -84.742188 193.535156 -82.140625 193.203125 -78.953125 C 192.796875 -75.179688 191.03125 -70.347656 187.90625 -64.453125 C 184.78125 -58.566406 179.539062 -51.394531 172.1875 -42.9375 C 167.332031 -37.289062 162.226562 -31.414062 156.875 -25.3125 C 151.53125 -19.21875 147.347656 -13.695312 144.328125 -8.75 C 142.203125 -5.3125 141.003906 -2.363281 140.734375 0.09375 C 140.441406 2.851562 141.132812 4.945312 142.8125 6.375 C 144.5 7.800781 146.722656 8.664062 149.484375 8.96875 C 152.378906 9.28125 155.75 8.941406 159.59375 7.953125 C 163.4375 6.960938 167.242188 5.28125 171.015625 2.90625 C 176.515625 -0.46875 182.09375 -4.96875 187.75 -10.59375 C 193.40625 -16.21875 199.160156 -23.113281 205.015625 -31.28125 C 205.566406 -32.25 206.347656 -32.675781 207.359375 -32.5625 C 207.796875 -32.519531 208.289062 -32.320312 208.84375 -31.96875 Z M 208.84375 -31.96875 "/></g></g></g><g fill="#9f9e05" fill-opacity="1"><g transform="translate(744.651652, 255.915196)"><g><path d="M 82.0625 -40.1875 C 82.820312 -39.457031 83.101562 -38.519531 82.90625 -37.375 C 82.800781 -36.789062 82.648438 -36.367188 82.453125 -36.109375 C 78.097656 -30.816406 73.53125 -25.597656 68.75 -20.453125 C 63.976562 -15.316406 59.082031 -10.71875 54.0625 -6.65625 C 49.039062 -2.59375 43.972656 0.460938 38.859375 2.515625 C 33.753906 4.566406 28.625 5.128906 23.46875 4.203125 C 16.4375 2.941406 11.125 0.140625 7.53125 -4.203125 C 3.9375 -8.554688 2.757812 -14.179688 4 -21.078125 C 4.71875 -25.078125 6.320312 -29.484375 8.8125 -34.296875 C 11.300781 -39.109375 14.820312 -44.289062 19.375 -49.84375 L 60.890625 -100.625 L 78.546875 -97.46875 L 38.140625 -48.046875 C 32.796875 -41.296875 28.453125 -35.40625 25.109375 -30.375 C 21.765625 -25.351562 19.394531 -21.046875 18 -17.453125 C 17.957031 -17.160156 17.867188 -16.835938 17.734375 -16.484375 C 17.597656 -16.140625 17.492188 -15.753906 17.421875 -15.328125 C 17.054688 -13.316406 17.234375 -11.023438 17.953125 -8.453125 C 18.679688 -5.878906 20.570312 -4.019531 23.625 -2.875 C 24.03125 -2.65625 24.734375 -2.457031 25.734375 -2.28125 C 28.160156 -1.84375 31.078125 -2.019531 34.484375 -2.8125 C 37.890625 -3.613281 41.78125 -5.476562 46.15625 -8.40625 C 51.375 -11.914062 56.664062 -16.445312 62.03125 -22 C 67.394531 -27.550781 72.71875 -33.484375 78 -39.796875 C 78.875 -40.535156 79.8125 -40.816406 80.8125 -40.640625 C 81.394531 -40.535156 81.8125 -40.382812 82.0625 -40.1875 Z M 96.46875 -116.921875 C 94.519531 -114.304688 92.265625 -112.265625 89.703125 -110.796875 C 87.140625 -109.335938 84.5 -108.847656 81.78125 -109.328125 C 80.625 -109.535156 79.515625 -109.957031 78.453125 -110.59375 C 75.253906 -112.644531 74.003906 -115.609375 74.703125 -119.484375 C 75.085938 -121.640625 76.253906 -124.015625 78.203125 -126.609375 C 80.492188 -129.460938 83.050781 -131.523438 85.875 -132.796875 C 88.695312 -134.066406 91.253906 -134.5 93.546875 -134.09375 C 94.703125 -133.882812 95.664062 -133.488281 96.4375 -132.90625 C 99.507812 -131.03125 100.6875 -128.082031 99.96875 -124.0625 C 99.507812 -121.488281 98.34375 -119.109375 96.46875 -116.921875 Z M 96.46875 -116.921875 "/></g></g></g><g fill="#9f9e05" fill-opacity="1"><g transform="translate(800.02229, 265.791058)"><g/></g></g><g fill="#9f9e05" fill-opacity="1"><g transform="translate(848.675387, 275.979488)"><g/></g></g></g></g></g><g clip-path="url(#9007511a13)"><g transform="matrix(1, 0, 0, 1, 0, 269)"><g clip-path="url(#7a7bbdf2cc)"><g fill="#9f9e05" fill-opacity="1"><g transform="translate(95.020556, 213.182714)"><g/></g></g><g fill="#9f9e05" fill-opacity="1"><g transform="translate(139.921182, 236.766072)"><g><path d="M 123.765625 -63.875 C 125.484375 -63.082031 125.945312 -61.828125 125.15625 -60.109375 C 124.363281 -58.378906 123.109375 -57.910156 121.390625 -58.703125 L 95.375 -70.671875 L 49.40625 -36.71875 C 42.53125 -31.539062 36.757812 -26.9375 32.09375 -22.90625 C 27.4375 -18.875 23.984375 -15.289062 21.734375 -12.15625 C 21.609375 -11.894531 21.4375 -11.613281 21.21875 -11.3125 C 21 -11.007812 20.796875 -10.660156 20.609375 -10.265625 C 19.753906 -8.410156 19.351562 -6.144531 19.40625 -3.46875 C 19.46875 -0.789062 20.835938 1.484375 23.515625 3.359375 C 23.847656 3.660156 24.476562 4.023438 25.40625 4.453125 C 27.644531 5.492188 30.539062 6.070312 34.09375 6.1875 C 37.65625 6.300781 41.851562 5.460938 46.6875 3.671875 C 52.757812 1.648438 59.085938 -1.367188 65.671875 -5.390625 C 72.265625 -9.421875 78.9375 -13.894531 85.6875 -18.8125 C 86.46875 -19.414062 87.382812 -19.472656 88.4375 -18.984375 C 88.96875 -18.742188 89.335938 -18.492188 89.546875 -18.234375 C 90.085938 -17.335938 90.117188 -16.363281 89.640625 -15.3125 C 89.390625 -14.78125 89.132812 -14.410156 88.875 -14.203125 C 81.414062 -8.816406 73.71875 -3.695312 65.78125 1.15625 C 57.851562 6.007812 50.117188 9.472656 42.578125 11.546875 C 35.046875 13.617188 28.039062 13.160156 21.5625 10.171875 C 15.070312 7.179688 10.632812 3.132812 8.25 -1.96875 C 5.875 -7.082031 6.148438 -12.820312 9.078125 -19.1875 C 10.785156 -22.894531 13.460938 -26.789062 17.109375 -30.875 C 20.753906 -34.96875 25.484375 -39.132812 31.296875 -43.375 L 79.078125 -78.171875 L 62.8125 -85.671875 C 61.082031 -86.460938 60.613281 -87.722656 61.40625 -89.453125 C 62.195312 -91.171875 63.457031 -91.632812 65.1875 -90.84375 L 84.234375 -82.0625 L 135.78125 -119.734375 L 152.265625 -112.140625 L 100.734375 -74.46875 Z M 123.765625 -63.875 "/></g></g></g><g fill="#9f9e05" fill-opacity="1"><g transform="translate(192.696065, 261.84944)"><g><path d="M 153.5 -32.921875 C 154.289062 -32.148438 154.476562 -31.21875 154.0625 -30.125 C 153.851562 -29.582031 153.628906 -29.207031 153.390625 -29 C 148.023438 -24.332031 142.335938 -21.078125 136.328125 -19.234375 C 130.316406 -17.390625 124.34375 -16.664062 118.40625 -17.0625 C 112.46875 -17.457031 106.910156 -18.644531 101.734375 -20.625 L 99.28125 -21.546875 C 97.195312 -19.378906 94.984375 -17.257812 92.640625 -15.1875 C 90.296875 -13.125 87.785156 -11.039062 85.109375 -8.9375 C 74.273438 -0.59375 63.429688 5.210938 52.578125 8.484375 C 41.734375 11.753906 32.382812 12.046875 24.53125 9.359375 L 22.6875 8.65625 C 16.957031 6.476562 12.921875 3.457031 10.578125 -0.40625 C 8.234375 -4.269531 7.128906 -8.4375 7.265625 -12.90625 C 7.410156 -17.382812 8.210938 -21.53125 9.671875 -25.34375 C 9.929688 -26.007812 10.175781 -26.648438 10.40625 -27.265625 C 10.644531 -27.878906 10.9375 -28.429688 11.28125 -28.921875 C 14.238281 -34.660156 18.164062 -40.457031 23.0625 -46.3125 C 27.957031 -52.175781 33.671875 -57.523438 40.203125 -62.359375 C 53.867188 -72.429688 66.054688 -78.503906 76.765625 -80.578125 C 87.472656 -82.660156 96.570312 -82.273438 104.0625 -79.421875 L 106.3125 -78.5625 C 107.125 -78.25 108.507812 -77.484375 110.46875 -76.265625 C 112.425781 -75.054688 114.320312 -73.28125 116.15625 -70.9375 C 117.988281 -68.59375 119.160156 -65.644531 119.671875 -62.09375 C 120.191406 -58.550781 119.460938 -54.191406 117.484375 -49.015625 C 117.179688 -48.191406 116.828125 -47.347656 116.421875 -46.484375 C 116.015625 -45.628906 115.503906 -44.625 114.890625 -43.46875 C 113.472656 -40.570312 111.8125 -37.648438 109.90625 -34.703125 C 108.007812 -31.765625 105.9375 -28.773438 103.6875 -25.734375 C 110.5 -23.128906 118.09375 -22.175781 126.46875 -22.875 C 134.851562 -23.582031 142.578125 -27.035156 149.640625 -33.234375 C 150.359375 -33.890625 151.257812 -34.007812 152.34375 -33.59375 C 152.894531 -33.382812 153.28125 -33.160156 153.5 -32.921875 Z M 108.90625 -44.328125 C 109.40625 -45.234375 109.882812 -46.179688 110.34375 -47.171875 C 110.800781 -48.160156 111.210938 -49.132812 111.578125 -50.09375 C 112.085938 -51.445312 112.546875 -52.863281 112.953125 -54.34375 C 113.367188 -55.832031 113.566406 -57.363281 113.546875 -58.9375 C 113.648438 -62.488281 112.71875 -65.148438 110.75 -66.921875 C 108.78125 -68.691406 106.910156 -69.914062 105.140625 -70.59375 C 104.722656 -70.75 104.332031 -70.859375 103.96875 -70.921875 C 103.601562 -70.984375 103.285156 -71.066406 103.015625 -71.171875 C 98.523438 -72.085938 94.832031 -71.421875 91.9375 -69.171875 C 89.050781 -66.921875 86.875 -64.28125 85.40625 -61.25 L 84.796875 -59.609375 C 83.023438 -54.992188 82.90625 -49.78125 84.4375 -43.96875 C 85.96875 -38.15625 89.835938 -33.363281 96.046875 -29.59375 L 97.9375 -28.390625 C 102.4375 -33.691406 106.09375 -39.003906 108.90625 -44.328125 Z M 81.828125 -13.234375 C 84.078125 -15.023438 86.222656 -16.859375 88.265625 -18.734375 C 90.304688 -20.609375 92.222656 -22.453125 94.015625 -24.265625 C 93.878906 -24.316406 93.753906 -24.40625 93.640625 -24.53125 C 93.535156 -24.65625 93.34375 -24.769531 93.0625 -24.875 C 85.738281 -29.375 81.117188 -35.148438 79.203125 -42.203125 C 77.285156 -49.265625 77.445312 -55.71875 79.6875 -61.5625 L 80.453125 -63.609375 C 81.003906 -64.648438 81.515625 -65.585938 81.984375 -66.421875 C 82.460938 -67.253906 82.992188 -68.023438 83.578125 -68.734375 C 74.128906 -65.640625 64.722656 -60.414062 55.359375 -53.0625 C 49.359375 -48.34375 43.765625 -43.378906 38.578125 -38.171875 C 33.390625 -32.972656 29.457031 -27.6875 26.78125 -22.3125 C 26.332031 -21.550781 25.960938 -20.796875 25.671875 -20.046875 C 25.390625 -19.304688 25.117188 -18.59375 24.859375 -17.90625 C 23.242188 -13.6875 22.628906 -9.820312 23.015625 -6.3125 C 23.398438 -2.8125 25.164062 -0.0703125 28.3125 1.90625 C 28.789062 2.25 29.507812 2.601562 30.46875 2.96875 C 34.007812 4.320312 38.597656 4.550781 44.234375 3.65625 C 49.878906 2.769531 56.019531 0.90625 62.65625 -1.9375 C 69.289062 -4.789062 75.679688 -8.554688 81.828125 -13.234375 Z M 81.828125 -13.234375 "/></g></g></g><g fill="#9f9e05" fill-opacity="1"><g transform="translate(279.255171, 295.758043)"><g><path d="M 166.359375 -38.484375 C 167.160156 -37.503906 167.421875 -36.523438 167.140625 -35.546875 C 167.066406 -35.265625 166.8125 -34.882812 166.375 -34.40625 C 157.25 -24.976562 147.59375 -18.6875 137.40625 -15.53125 C 127.226562 -12.382812 117.457031 -10.820312 108.09375 -10.84375 C 96.113281 0.65625 84.992188 8.117188 74.734375 11.546875 C 64.484375 14.984375 55.707031 15.6875 48.40625 13.65625 C 47 13.257812 45.703125 12.75 44.515625 12.125 C 43.328125 11.5 42.226562 10.816406 41.21875 10.078125 C 39.082031 7.972656 37.738281 5.441406 37.1875 2.484375 C 36.644531 -0.460938 36.765625 -3.34375 37.546875 -6.15625 C 37.546875 -6.15625 37.894531 -7 38.59375 -8.6875 C 39.300781 -10.382812 40.671875 -12.3125 42.703125 -14.46875 C 44.734375 -16.625 47.617188 -18.429688 51.359375 -19.890625 C 55.097656 -21.359375 59.953125 -21.941406 65.921875 -21.640625 C 68.003906 -21.515625 70.28125 -21.257812 72.75 -20.875 C 75.21875 -20.5 77.894531 -20.0625 80.78125 -19.5625 C 82.363281 -19.269531 84.0625 -18.984375 85.875 -18.703125 C 87.6875 -18.429688 89.523438 -18.113281 91.390625 -17.75 C 91.828125 -18.238281 92.28125 -18.644531 92.75 -18.96875 C 93.21875 -19.289062 93.597656 -19.710938 93.890625 -20.234375 C 98.609375 -24.679688 103.445312 -29.582031 108.40625 -34.9375 C 113.375 -40.289062 117.753906 -45.578125 121.546875 -50.796875 C 125.347656 -56.023438 127.78125 -60.535156 128.84375 -64.328125 C 129.925781 -68.265625 129.179688 -71.046875 126.609375 -72.671875 C 126.085938 -72.960938 125.515625 -73.226562 124.890625 -73.46875 C 124.273438 -73.71875 123.617188 -73.941406 122.921875 -74.140625 C 117.578125 -75.617188 110.398438 -74.84375 101.390625 -71.8125 C 92.390625 -68.789062 82.972656 -62.367188 73.140625 -52.546875 L -27.078125 48.53125 L -44.5625 43.6875 L 87.515625 -89.640625 L 105.015625 -84.78125 L 95.203125 -74.796875 C 107.953125 -80.941406 119.453125 -82.59375 129.703125 -79.75 C 133.773438 -78.613281 136.972656 -76.097656 139.296875 -72.203125 C 141.628906 -68.304688 141.820312 -62.84375 139.875 -55.8125 C 138.507812 -50.894531 135.796875 -45.21875 131.734375 -38.78125 C 127.679688 -32.34375 121.796875 -25.050781 114.078125 -16.90625 C 122.367188 -17.332031 130.691406 -19.109375 139.046875 -22.234375 C 147.398438 -25.359375 155.21875 -30.753906 162.5 -38.421875 C 163.144531 -39.148438 164.03125 -39.359375 165.15625 -39.046875 C 165.71875 -38.890625 166.117188 -38.703125 166.359375 -38.484375 Z M 45.171875 4.8125 C 46.671875 5.988281 48.125 6.773438 49.53125 7.171875 C 53.1875 8.179688 57.878906 7.207031 63.609375 4.25 C 69.347656 1.300781 76.867188 -4.390625 86.171875 -12.828125 L 79.6875 -13.96875 C 76.96875 -14.5625 74.410156 -15.035156 72.015625 -15.390625 C 69.617188 -15.753906 67.453125 -15.984375 65.515625 -16.078125 C 60.460938 -16.421875 56.429688 -15.953125 53.421875 -14.671875 C 50.421875 -13.390625 48.179688 -11.859375 46.703125 -10.078125 C 45.234375 -8.296875 44.203125 -6.882812 43.609375 -5.84375 C 43.347656 -5.445312 43.097656 -4.828125 42.859375 -3.984375 C 42.117188 -1.316406 42.257812 0.757812 43.28125 2.25 C 44.300781 3.75 44.929688 4.601562 45.171875 4.8125 Z M 45.171875 4.8125 "/></g></g></g><g fill="#9f9e05" fill-opacity="1"><g transform="translate(394.416977, 327.763736)"><g><path d="M 137.0625 -31.359375 C 137.851562 -30.773438 138.148438 -29.910156 137.953125 -28.765625 C 137.859375 -28.191406 137.710938 -27.773438 137.515625 -27.515625 C 131.710938 -20.359375 125.613281 -13.40625 119.21875 -6.65625 C 112.832031 0.09375 106.207031 5.398438 99.34375 9.265625 C 92.476562 13.140625 85.457031 14.46875 78.28125 13.25 C 71.226562 12.0625 65.914062 9.351562 62.34375 5.125 C 58.769531 0.894531 57.546875 -4.523438 58.671875 -11.140625 C 58.765625 -11.722656 58.863281 -12.335938 58.96875 -12.984375 C 59.082031 -13.628906 59.265625 -14.226562 59.515625 -14.78125 C 52.773438 -8.21875 46.171875 -3.300781 39.703125 -0.03125 C 33.234375 3.226562 27.257812 4.46875 21.78125 3.6875 L 20.921875 3.546875 C 15.742188 2.671875 11.804688 0.785156 9.109375 -2.109375 C 6.421875 -5.015625 4.734375 -8.375 4.046875 -12.1875 C 3.367188 -16 3.359375 -19.84375 4.015625 -23.71875 C 4.160156 -24.582031 4.300781 -25.40625 4.4375 -26.1875 C 4.570312 -26.976562 4.769531 -27.722656 5.03125 -28.421875 C 6.945312 -34.460938 9.796875 -40.785156 13.578125 -47.390625 C 17.359375 -53.992188 21.90625 -60.320312 27.21875 -66.375 C 35.457031 -75.769531 43.097656 -82.9375 50.140625 -87.875 C 57.191406 -92.820312 63.617188 -96.0625 69.421875 -97.59375 C 75.222656 -99.125 80.351562 -99.515625 84.8125 -98.765625 C 86.675781 -98.441406 88.367188 -97.96875 89.890625 -97.34375 C 91.421875 -96.71875 92.851562 -96 94.1875 -95.1875 C 97.019531 -93.519531 98.890625 -91.238281 99.796875 -88.34375 C 100.703125 -85.445312 100.835938 -82.132812 100.203125 -78.40625 C 99.984375 -77.101562 99.6875 -75.78125 99.3125 -74.4375 C 98.9375 -73.101562 98.472656 -71.671875 97.921875 -70.140625 L 115.359375 -91.8125 L 133.25 -88.78125 L 93.09375 -39.015625 C 87.125 -31.609375 82.65625 -25.492188 79.6875 -20.671875 C 76.726562 -15.847656 74.570312 -11.628906 73.21875 -8.015625 C 73.164062 -7.722656 73.078125 -7.398438 72.953125 -7.046875 C 72.828125 -6.703125 72.726562 -6.316406 72.65625 -5.890625 C 72.3125 -3.878906 72.515625 -1.628906 73.265625 0.859375 C 74.023438 3.359375 75.925781 5.234375 78.96875 6.484375 C 79.375 6.703125 79.789062 6.847656 80.21875 6.921875 C 80.65625 6.992188 81.09375 7.066406 81.53125 7.140625 C 83.957031 7.554688 86.835938 7.304688 90.171875 6.390625 C 93.515625 5.472656 97.273438 3.597656 101.453125 0.765625 C 106.640625 -2.804688 111.882812 -7.390625 117.1875 -12.984375 C 122.5 -18.585938 127.769531 -24.570312 133 -30.9375 C 133.738281 -31.84375 134.613281 -32.210938 135.625 -32.046875 C 136.050781 -31.972656 136.53125 -31.742188 137.0625 -31.359375 Z M 38.515625 -6.125 C 47.898438 -10.894531 57.90625 -19.773438 68.53125 -32.765625 C 70.238281 -34.984375 72.429688 -37.898438 75.109375 -41.515625 C 77.796875 -45.128906 80.46875 -49.113281 83.125 -53.46875 C 85.789062 -57.820312 88.160156 -62.1875 90.234375 -66.5625 C 92.304688 -70.9375 93.644531 -74.921875 94.25 -78.515625 C 94.664062 -80.960938 94.664062 -83.144531 94.25 -85.0625 C 93.832031 -86.988281 92.921875 -88.585938 91.515625 -89.859375 C 90.484375 -90.773438 89.25 -91.351562 87.8125 -91.59375 C 84.363281 -92.1875 80.179688 -91.082031 75.265625 -88.28125 C 70.359375 -85.488281 65.160156 -81.640625 59.671875 -76.734375 C 54.179688 -71.828125 48.945312 -66.46875 43.96875 -60.65625 C 38.976562 -54.695312 34.523438 -48.679688 30.609375 -42.609375 C 26.703125 -36.546875 23.816406 -30.640625 21.953125 -24.890625 C 21.140625 -22.671875 20.550781 -20.484375 20.1875 -18.328125 C 19.4375 -13.867188 19.738281 -10.414062 21.09375 -7.96875 C 22.445312 -5.519531 24.488281 -4.066406 27.21875 -3.609375 C 30.226562 -3.097656 33.992188 -3.9375 38.515625 -6.125 Z M 38.515625 -6.125 "/></g></g></g><g fill="#9f9e05" fill-opacity="1"><g transform="translate(505.901099, 345.655674)"><g/></g></g><g fill="#9f9e05" fill-opacity="1"><g transform="translate(557.067883, 354.362708)"><g><path d="M 203.640625 -56.234375 C 204.523438 -55.804688 204.972656 -55.007812 204.984375 -53.84375 C 204.992188 -53.257812 204.925781 -52.820312 204.78125 -52.53125 C 195.769531 -35.957031 186.351562 -23.351562 176.53125 -14.71875 C 166.71875 -6.082031 156.34375 -1.703125 145.40625 -1.578125 C 140.445312 -1.523438 136.394531 -2.207031 133.25 -3.625 C 130.101562 -5.050781 127.941406 -6.925781 126.765625 -9.25 C 125.421875 -11.71875 124.734375 -14.484375 124.703125 -17.546875 C 124.640625 -23.085938 126.640625 -29.8125 130.703125 -37.71875 C 134.765625 -45.632812 140.742188 -54.960938 148.640625 -65.703125 C 152.378906 -70.554688 156.046875 -75.515625 159.640625 -80.578125 C 163.234375 -85.640625 166.382812 -91.101562 169.09375 -96.96875 C 169.238281 -97.257812 169.554688 -98.03125 170.046875 -99.28125 C 170.546875 -100.53125 170.789062 -101.738281 170.78125 -102.90625 C 170.769531 -103.925781 170.46875 -104.722656 169.875 -105.296875 C 169.28125 -105.867188 168.65625 -106.222656 168 -106.359375 C 167.34375 -106.503906 166.648438 -106.570312 165.921875 -106.5625 C 165.628906 -106.5625 165.300781 -106.519531 164.9375 -106.4375 C 164.570312 -106.363281 164.242188 -106.328125 163.953125 -106.328125 C 161.191406 -105.859375 158.359375 -104.878906 155.453125 -103.390625 C 152.554688 -101.898438 149.660156 -100.046875 146.765625 -97.828125 C 138.816406 -91.898438 131.675781 -85.257812 125.34375 -77.90625 C 119.007812 -70.550781 113.617188 -63.457031 109.171875 -56.625 C 104.734375 -49.800781 101.296875 -44.1875 98.859375 -39.78125 L 78.5 -2.609375 L 60.5625 -2.40625 C 68.707031 -17.375 75.316406 -29.550781 80.390625 -38.9375 C 85.460938 -48.320312 89.425781 -55.65625 92.28125 -60.9375 C 95.144531 -66.21875 97.179688 -69.992188 98.390625 -72.265625 C 99.609375 -74.535156 100.359375 -75.890625 100.640625 -76.328125 C 100.929688 -76.773438 101.078125 -77 101.078125 -77 C 103.515625 -81.238281 105.617188 -85.738281 107.390625 -90.5 C 109.160156 -95.257812 110.03125 -99.023438 110 -101.796875 C 109.988281 -102.960938 109.757812 -103.835938 109.3125 -104.421875 C 108.28125 -105.429688 106.960938 -105.925781 105.359375 -105.90625 C 105.066406 -105.90625 104.773438 -105.863281 104.484375 -105.78125 C 104.191406 -105.707031 103.898438 -105.671875 103.609375 -105.671875 C 100.847656 -105.203125 97.976562 -104.222656 95 -102.734375 C 92.03125 -101.242188 89.097656 -99.390625 86.203125 -97.171875 C 78.835938 -91.691406 72.164062 -85.601562 66.1875 -78.90625 C 60.207031 -72.207031 54.988281 -65.625 50.53125 -59.15625 C 46.082031 -52.695312 42.570312 -47.117188 40 -42.421875 L 17.921875 -1.9375 L -0.015625 -1.75 L 59.171875 -110.4375 L 77.328125 -110.640625 L 61.453125 -81.59375 C 66.203125 -87.03125 71.175781 -92.070312 76.375 -96.71875 C 81.570312 -101.375 86.847656 -105.191406 92.203125 -108.171875 C 97.566406 -111.148438 102.800781 -112.664062 107.90625 -112.71875 C 110.382812 -112.738281 112.722656 -112.46875 114.921875 -111.90625 C 117.117188 -111.351562 118.8125 -110.0625 120 -108.03125 C 121.625 -105.570312 122.457031 -102.664062 122.5 -99.3125 C 122.5625 -93.332031 120.101562 -84.78125 115.125 -73.65625 C 120.15625 -80.125 125.625 -86.375 131.53125 -92.40625 C 137.4375 -98.445312 143.535156 -103.4375 149.828125 -107.375 C 156.128906 -111.3125 162.34375 -113.3125 168.46875 -113.375 C 170.945312 -113.40625 173.285156 -113.140625 175.484375 -112.578125 C 177.679688 -112.015625 179.375 -110.71875 180.5625 -108.6875 C 181.894531 -106.8125 182.578125 -104.269531 182.609375 -101.0625 C 182.648438 -97.269531 181.460938 -92.265625 179.046875 -86.046875 C 176.640625 -79.828125 172.28125 -72.085938 165.96875 -62.828125 C 161.800781 -56.648438 157.421875 -50.21875 152.828125 -43.53125 C 148.234375 -36.851562 144.722656 -30.878906 142.296875 -25.609375 C 140.585938 -21.941406 139.75 -18.867188 139.78125 -16.390625 C 139.8125 -13.617188 140.742188 -11.625 142.578125 -10.40625 C 144.410156 -9.1875 146.710938 -8.59375 149.484375 -8.625 C 152.398438 -8.65625 155.707031 -9.382812 159.40625 -10.8125 C 163.113281 -12.238281 166.703125 -14.351562 170.171875 -17.15625 C 175.234375 -21.15625 180.242188 -26.273438 185.203125 -32.515625 C 190.160156 -38.765625 195.070312 -46.289062 199.9375 -55.09375 C 200.363281 -56.125 201.085938 -56.644531 202.109375 -56.65625 C 202.546875 -56.65625 203.054688 -56.515625 203.640625 -56.234375 Z M 203.640625 -56.234375 "/></g></g></g><g fill="#9f9e05" fill-opacity="1"><g transform="translate(744.907067, 348.992951)"><g><path d="M 66.71875 -62.4375 C 67.664062 -61.96875 68.207031 -61.148438 68.34375 -59.984375 C 68.414062 -59.410156 68.394531 -58.96875 68.28125 -58.65625 C 65.664062 -52.320312 62.828125 -46 59.765625 -39.6875 C 56.703125 -33.375 53.363281 -27.539062 49.75 -22.1875 C 46.132812 -16.832031 42.179688 -12.425781 37.890625 -8.96875 C 33.609375 -5.507812 28.867188 -3.46875 23.671875 -2.84375 C 16.578125 -1.988281 10.675781 -3.113281 5.96875 -6.21875 C 1.257812 -9.332031 -1.507812 -14.363281 -2.34375 -21.3125 C -2.832031 -25.351562 -2.585938 -30.035156 -1.609375 -35.359375 C -0.628906 -40.691406 1.21875 -46.6875 3.9375 -53.34375 L 28.78125 -114.046875 L 46.578125 -116.1875 L 22.421875 -57.09375 C 19.273438 -49.082031 16.835938 -42.179688 15.109375 -36.390625 C 13.390625 -30.609375 12.390625 -25.796875 12.109375 -21.953125 C 12.148438 -21.660156 12.15625 -21.328125 12.125 -20.953125 C 12.09375 -20.578125 12.101562 -20.175781 12.15625 -19.75 C 12.40625 -17.71875 13.253906 -15.578125 14.703125 -13.328125 C 16.148438 -11.078125 18.5 -9.859375 21.75 -9.671875 C 22.195312 -9.578125 22.929688 -9.59375 23.953125 -9.71875 C 26.398438 -10.007812 29.128906 -11.035156 32.140625 -12.796875 C 35.160156 -14.554688 38.34375 -17.46875 41.6875 -21.53125 C 45.644531 -26.414062 49.375 -32.300781 52.875 -39.1875 C 56.382812 -46.070312 59.738281 -53.304688 62.9375 -60.890625 C 63.550781 -61.835938 64.367188 -62.375 65.390625 -62.5 C 65.960938 -62.5625 66.40625 -62.539062 66.71875 -62.4375 Z M 58.046875 -140.03125 C 56.941406 -136.957031 55.378906 -134.34375 53.359375 -132.1875 C 51.347656 -130.039062 48.96875 -128.800781 46.21875 -128.46875 C 45.0625 -128.332031 43.878906 -128.414062 42.671875 -128.71875 C 39.015625 -129.738281 36.953125 -132.203125 36.484375 -136.109375 C 36.222656 -138.273438 36.640625 -140.890625 37.734375 -143.953125 C 39.085938 -147.347656 40.925781 -150.066406 43.25 -152.109375 C 45.570312 -154.160156 47.894531 -155.328125 50.21875 -155.609375 C 51.375 -155.742188 52.410156 -155.644531 53.328125 -155.3125 C 56.816406 -154.40625 58.804688 -151.925781 59.296875 -147.875 C 59.609375 -145.28125 59.191406 -142.664062 58.046875 -140.03125 Z M 58.046875 -140.03125 "/></g></g></g><g fill="#9f9e05" fill-opacity="1"><g transform="translate(801.769468, 342.180309)"><g/></g></g><g fill="#9f9e05" fill-opacity="1"><g transform="translate(853.4421, 337.30243)"><g><path d="M 182.0625 -107.1875 C 183.019531 -107 183.660156 -106.34375 183.984375 -105.21875 C 184.140625 -104.65625 184.179688 -104.21875 184.109375 -103.90625 C 179.710938 -85.5625 173.894531 -70.941406 166.65625 -60.046875 C 159.425781 -49.160156 150.546875 -42.238281 140.015625 -39.28125 C 135.234375 -37.945312 131.140625 -37.5625 127.734375 -38.125 C 124.328125 -38.6875 121.75 -39.925781 120 -41.84375 C 118.070312 -43.875 116.691406 -46.363281 115.859375 -49.3125 C 114.359375 -54.65625 114.539062 -61.675781 116.40625 -70.375 C 118.28125 -79.070312 121.640625 -89.628906 126.484375 -102.046875 C 128.835938 -107.703125 131.085938 -113.441406 133.234375 -119.265625 C 135.390625 -125.085938 137.015625 -131.1875 138.109375 -137.5625 C 138.171875 -137.875 138.28125 -138.695312 138.4375 -140.03125 C 138.59375 -141.363281 138.515625 -142.585938 138.203125 -143.703125 C 137.929688 -144.691406 137.429688 -145.390625 136.703125 -145.796875 C 135.984375 -146.203125 135.289062 -146.382812 134.625 -146.34375 C 133.957031 -146.3125 133.269531 -146.195312 132.5625 -146 C 132.28125 -145.914062 131.972656 -145.785156 131.640625 -145.609375 C 131.316406 -145.441406 131.015625 -145.320312 130.734375 -145.25 C 128.179688 -144.082031 125.695312 -142.398438 123.28125 -140.203125 C 120.875 -138.015625 118.554688 -135.472656 116.328125 -132.578125 C 110.203125 -124.796875 105.03125 -116.53125 100.8125 -107.78125 C 96.601562 -99.03125 93.238281 -90.78125 90.71875 -83.03125 C 88.195312 -75.28125 86.335938 -68.96875 85.140625 -64.09375 L 75.125 -22.90625 L 57.859375 -18.046875 C 61.835938 -34.617188 65.054688 -48.09375 67.515625 -58.46875 C 69.972656 -68.84375 71.894531 -76.953125 73.28125 -82.796875 C 74.675781 -88.648438 75.660156 -92.828125 76.234375 -95.328125 C 76.816406 -97.835938 77.191406 -99.34375 77.359375 -99.84375 C 77.523438 -100.34375 77.609375 -100.59375 77.609375 -100.59375 C 78.859375 -105.320312 79.71875 -110.210938 80.1875 -115.265625 C 80.664062 -120.328125 80.535156 -124.195312 79.796875 -126.875 C 79.472656 -127.988281 79.019531 -128.769531 78.4375 -129.21875 C 77.1875 -129.925781 75.785156 -130.0625 74.234375 -129.625 C 73.953125 -129.550781 73.679688 -129.4375 73.421875 -129.28125 C 73.171875 -129.132812 72.90625 -129.019531 72.625 -128.9375 C 70.070312 -127.769531 67.550781 -126.078125 65.0625 -123.859375 C 62.582031 -121.648438 60.226562 -119.101562 58 -116.21875 C 52.3125 -109.007812 47.445312 -101.394531 43.40625 -93.375 C 39.375 -85.363281 36.046875 -77.65625 33.421875 -70.25 C 30.804688 -62.851562 28.867188 -56.550781 27.609375 -51.34375 L 16.796875 -6.53125 L -0.46875 -1.6875 L 28.453125 -122.015625 L 45.9375 -126.921875 L 38.15625 -94.75 C 41.320312 -101.238281 44.8125 -107.398438 48.625 -113.234375 C 52.4375 -119.078125 56.546875 -124.128906 60.953125 -128.390625 C 65.359375 -132.648438 70.019531 -135.472656 74.9375 -136.859375 C 77.320312 -137.523438 79.644531 -137.875 81.90625 -137.90625 C 84.175781 -137.945312 86.148438 -137.140625 87.828125 -135.484375 C 90.035156 -133.535156 91.59375 -130.945312 92.5 -127.71875 C 94.113281 -121.957031 93.957031 -113.054688 92.03125 -101.015625 C 95.21875 -108.578125 98.878906 -116.035156 103.015625 -123.390625 C 107.148438 -130.753906 111.75 -137.148438 116.8125 -142.578125 C 121.882812 -148.015625 127.367188 -151.5625 133.265625 -153.21875 C 135.648438 -153.894531 137.972656 -154.25 140.234375 -154.28125 C 142.492188 -154.3125 144.460938 -153.5 146.140625 -151.84375 C 147.921875 -150.375 149.242188 -148.09375 150.109375 -145 C 151.128906 -141.351562 151.28125 -136.210938 150.5625 -129.578125 C 149.851562 -122.953125 147.648438 -114.347656 143.953125 -103.765625 C 141.535156 -96.734375 138.976562 -89.390625 136.28125 -81.734375 C 133.582031 -74.085938 131.75 -67.40625 130.78125 -61.6875 C 130.070312 -57.707031 130.054688 -54.523438 130.734375 -52.140625 C 131.484375 -49.460938 132.898438 -47.769531 134.984375 -47.0625 C 137.078125 -46.363281 139.457031 -46.390625 142.125 -47.140625 C 144.925781 -47.929688 147.929688 -49.492188 151.140625 -51.828125 C 154.347656 -54.171875 157.257812 -57.15625 159.875 -60.78125 C 163.726562 -65.9375 167.238281 -72.175781 170.40625 -79.5 C 173.570312 -86.820312 176.363281 -95.363281 178.78125 -105.125 C 178.914062 -106.226562 179.472656 -106.914062 180.453125 -107.1875 C 180.878906 -107.3125 181.414062 -107.3125 182.0625 -107.1875 Z M 182.0625 -107.1875 "/></g></g></g><g fill="#9f9e05" fill-opacity="1"><g transform="translate(1033.706527, 283.631585)"><g><path d="M 67.46875 -87.359375 C 68.445312 -87.296875 69.160156 -86.722656 69.609375 -85.640625 C 69.835938 -85.097656 69.9375 -84.671875 69.90625 -84.359375 C 69.070312 -77.210938 67.828125 -70.023438 66.171875 -62.796875 C 64.515625 -55.578125 62.210938 -48.671875 59.265625 -42.078125 C 56.316406 -35.484375 52.398438 -29.597656 47.515625 -24.421875 C 42.640625 -19.242188 36.429688 -15.09375 28.890625 -11.96875 C 20.941406 -8.675781 14.304688 -7.546875 8.984375 -8.578125 C 3.671875 -9.609375 -0.5625 -11.835938 -3.71875 -15.265625 C -6.875 -18.691406 -9.234375 -22.289062 -10.796875 -26.0625 C -11.242188 -27.132812 -11.613281 -28.117188 -11.90625 -29.015625 C -12.195312 -29.921875 -12.445312 -30.8125 -12.65625 -31.6875 C -14.195312 -37.675781 -14.988281 -43.773438 -15.03125 -49.984375 C -15.082031 -56.203125 -14.503906 -63.191406 -13.296875 -70.953125 C -12.566406 -75.671875 -11.410156 -80.878906 -9.828125 -86.578125 C -8.253906 -92.285156 -6.15625 -97.972656 -3.53125 -103.640625 C -0.90625 -109.304688 2.28125 -114.375 6.03125 -118.84375 C 9.78125 -123.3125 14.148438 -126.578125 19.140625 -128.640625 C 19.941406 -128.972656 21.328125 -129.429688 23.296875 -130.015625 C 25.273438 -130.609375 27.535156 -130.878906 30.078125 -130.828125 C 32.617188 -130.773438 35.101562 -129.910156 37.53125 -128.234375 C 40.476562 -126.453125 42.734375 -123.675781 44.296875 -119.90625 C 45.023438 -118.15625 45.578125 -116.25 45.953125 -114.1875 C 46.328125 -112.125 46.363281 -109.9375 46.0625 -107.625 C 45.476562 -100.28125 43.734375 -93.832031 40.828125 -88.28125 C 37.921875 -82.738281 34.289062 -77.878906 29.9375 -73.703125 C 25.59375 -69.535156 21.007812 -65.941406 16.1875 -62.921875 C 11.363281 -59.898438 6.785156 -57.332031 2.453125 -55.21875 C 2.304688 -54.050781 2.253906 -52.84375 2.296875 -51.59375 C 2.347656 -50.351562 2.390625 -49.113281 2.421875 -47.875 C 2.722656 -41.050781 3.796875 -35.421875 5.640625 -30.984375 C 8.203125 -24.785156 11.863281 -20.976562 16.625 -19.5625 C 21.394531 -18.144531 26.34375 -18.492188 31.46875 -20.609375 L 33.078125 -21.28125 C 41.523438 -25.257812 48.320312 -32.375 53.46875 -42.625 C 58.613281 -52.882812 62.273438 -66.988281 64.453125 -84.9375 C 64.523438 -85.90625 65.101562 -86.613281 66.1875 -87.0625 C 66.71875 -87.289062 67.144531 -87.390625 67.46875 -87.359375 Z M 23.625 -122.953125 C 21.0625 -121.890625 18.691406 -119.125 16.515625 -114.65625 C 14.347656 -110.195312 12.367188 -104.878906 10.578125 -98.703125 C 8.796875 -92.535156 7.257812 -86.144531 5.96875 -79.53125 C 4.6875 -72.914062 3.664062 -66.925781 2.90625 -61.5625 C 7.125 -63.9375 11.722656 -67.101562 16.703125 -71.0625 C 21.691406 -75.03125 26.09375 -79.9375 29.90625 -85.78125 C 33.726562 -91.625 35.8125 -98.320312 36.15625 -105.875 C 36.289062 -110.5 35.710938 -114.359375 34.421875 -117.453125 C 32.078125 -123.117188 28.476562 -124.953125 23.625 -122.953125 Z M 23.625 -122.953125 "/></g></g></g><g fill="#9f9e05" fill-opacity="1"><g transform="translate(1108.230416, 252.977397)"><g><path d="M 62.53125 -91.828125 C 63.570312 -91.703125 64.320312 -91.1875 64.78125 -90.28125 C 65.039062 -89.757812 65.175781 -89.332031 65.1875 -89 C 64.613281 -76.800781 62.882812 -65.78125 60 -55.9375 C 57.125 -46.09375 52.363281 -37.300781 45.71875 -29.5625 C 39.082031 -21.820312 29.96875 -15.039062 18.375 -9.21875 C 11.726562 -5.882812 5.664062 -5.285156 0.1875 -7.421875 C -1.3125 -8.148438 -2.679688 -8.9375 -3.921875 -9.78125 C -5.035156 -10.6875 -5.953125 -11.859375 -6.671875 -13.296875 C -7.585938 -15.117188 -8.046875 -16.925781 -8.046875 -18.71875 C -8.046875 -20.507812 -8.050781 -21.566406 -8.0625 -21.890625 C -7.675781 -24.367188 -6.859375 -26.488281 -5.609375 -28.25 C -4.367188 -30.007812 -2.96875 -31.285156 -1.40625 -32.078125 C -0.5 -32.535156 0.179688 -32.796875 0.640625 -32.859375 C 3.578125 -33.191406 5.796875 -31.863281 7.296875 -28.875 C 7.753906 -27.957031 8.09375 -26.941406 8.3125 -25.828125 C 8.539062 -24.722656 8.59375 -23.484375 8.46875 -22.109375 C 8.414062 -20.296875 8.128906 -18.523438 7.609375 -16.796875 C 7.085938 -15.066406 6.304688 -13.609375 5.265625 -12.421875 C 7.878906 -12.097656 10.75 -12.722656 13.875 -14.296875 L 15.640625 -15.1875 C 18.890625 -17.144531 21.222656 -20.601562 22.640625 -25.5625 C 24.066406 -30.519531 24.445312 -36.5 23.78125 -43.5 C 23.125 -50.507812 21.160156 -58.085938 17.890625 -66.234375 C 13.703125 -76.859375 10.898438 -86.664062 9.484375 -95.65625 C 8.066406 -104.65625 8.488281 -112.421875 10.75 -118.953125 C 4.1875 -113.191406 -0.601562 -106.898438 -3.625 -100.078125 C -6.65625 -93.265625 -8.632812 -86.078125 -9.5625 -78.515625 C -10.488281 -70.953125 -11.109375 -63.097656 -11.421875 -54.953125 L -11.71875 -50.140625 C -11.644531 -49.046875 -12.128906 -48.234375 -13.171875 -47.703125 C -13.441406 -47.578125 -13.90625 -47.515625 -14.5625 -47.515625 C -15.53125 -47.503906 -16.28125 -48.019531 -16.8125 -49.0625 C -17.070312 -49.582031 -17.195312 -50.003906 -17.1875 -50.328125 L -17 -55.328125 C -16.625 -63.023438 -16.019531 -70.585938 -15.1875 -78.015625 C -14.351562 -85.441406 -12.585938 -92.644531 -9.890625 -99.625 C -7.203125 -106.613281 -2.925781 -113.207031 2.9375 -119.40625 C 8.800781 -125.613281 16.8125 -131.269531 26.96875 -136.375 C 28.65625 -137.21875 29.921875 -136.789062 30.765625 -135.09375 C 31.617188 -133.40625 31.203125 -132.140625 29.515625 -131.296875 C 29.515625 -131.296875 29.476562 -131.273438 29.40625 -131.234375 C 29.34375 -131.203125 29.117188 -131.09375 28.734375 -130.90625 C 24.703125 -128.875 22.132812 -125.867188 21.03125 -121.890625 C 19.925781 -117.910156 19.898438 -113.328125 20.953125 -108.140625 C 22.003906 -102.960938 23.625 -97.378906 25.8125 -91.390625 C 28.007812 -85.398438 30.382812 -79.375 32.9375 -73.3125 C 36.726562 -64.113281 38.875 -55.6875 39.375 -48.03125 C 39.875 -40.375 38.894531 -33.640625 36.4375 -27.828125 C 42.820312 -33.640625 47.601562 -39.796875 50.78125 -46.296875 C 53.96875 -52.796875 56.125 -59.628906 57.25 -66.796875 C 58.375 -73.960938 59.125 -81.394531 59.5 -89.09375 C 59.769531 -90.195312 60.359375 -90.976562 61.265625 -91.4375 C 61.785156 -91.695312 62.207031 -91.828125 62.53125 -91.828125 Z M 62.53125 -91.828125 "/></g></g></g></g></g></g></g></g></svg>